<?xml version="1.0" standalone="no"?>
<!DOCTYPE svg PUBLIC "-//W3C//DTD SVG 20010904//EN"
 "http://www.w3.org/TR/2001/REC-SVG-20010904/DTD/svg10.dtd">
<svg version="1.0" xmlns="http://www.w3.org/2000/svg"
 width="260.000000pt" height="260.000000pt" viewBox="0 0 260.000000 260.000000"
 preserveAspectRatio="xMidYMid meet">
<metadata>
Created by potrace 1.11, written by Peter Selinger 2001-2013
</metadata>
<g transform="translate(0.000000,260.000000) scale(0.100000,-0.100000)"
fill="#000000" stroke="none">
<path d="M1247 2590 c-127 -32 -224 -125 -298 -285 -30 -66 -72 -211 -84 -297
-12 -76 -14 -331 -4 -383 6 -27 13 -61 15 -75 7 -36 53 -148 82 -200 48 -87
87 -136 195 -244 129 -130 164 -172 206 -247 28 -51 85 -199 76 -199 -2 0 1
-15 6 -32 14 -47 13 -214 -2 -273 -48 -192 -148 -262 -280 -194 -151 76 -206
367 -108 574 15 33 42 75 60 93 36 37 24 40 -41 11 -113 -51 -199 -216 -194
-374 7 -265 163 -451 386 -461 156 -6 263 52 385 211 32 41 80 161 98 242 14
65 14 235 1 293 -3 14 -8 39 -12 55 -10 51 -71 191 -107 247 -49 75 -91 124
-243 280 -116 119 -138 148 -172 220 -56 116 -66 170 -65 328 1 109 7 154 27
234 74 287 231 420 344 291 61 -68 92 -216 71 -329 -13 -68 -57 -152 -104
-195 -36 -33 -61 -45 -162 -76 -20 -6 16 -82 63 -131 76 -79 125 -84 188 -20
44 46 82 114 109 197 48 143 42 386 -13 533 -28 74 -104 157 -170 185 -58 25
-192 36 -253 21z"/>
</g>
</svg>
